<svg width="193" height="164" viewBox="0 0 193 164" fill="none" xmlns="http://www.w3.org/2000/svg">
<g id="Group 2">
<path id="Vector" d="M3.77551 31.958C8.27017 27.4639 15.5579 27.4639 20.0526 31.958L45.2804 57.1827C66.4053 78.3049 66.4053 112.543 45.2804 133.666L19.6481 159.295C15.1534 163.789 7.86565 163.789 3.37099 159.295C-1.12366 154.801 -1.12366 147.514 3.37099 143.02L29.0034 117.391C41.1389 105.257 41.1389 85.5853 29.0034 73.4577L3.77551 48.233C-0.719145 43.7389 -0.719145 36.4521 3.77551 31.958Z" fill="#A576FF"/>
<path id="Vector_2" d="M32.3743 3.37057C36.869 -1.12352 44.1567 -1.12352 48.6514 3.37057L74.2838 28.9997C86.4193 41.1338 106.093 41.1338 118.222 28.9997L143.855 3.37057C148.349 -1.12352 155.637 -1.12352 160.132 3.37057C164.626 7.86466 164.626 15.1515 160.132 19.6456L134.499 45.2747C113.374 66.397 79.1316 66.397 58.0067 45.2747L32.3743 19.6456C27.8797 15.1515 27.8797 7.86466 32.3743 3.37057Z" fill="#A576FF"/>
<path id="Vector_3" d="M146.815 57.5871L172.447 31.958C176.942 27.4639 184.23 27.4639 188.724 31.958C193.219 36.4521 193.219 43.7389 188.724 48.233L163.092 73.8622C150.956 85.9962 150.956 105.667 163.092 117.795L188.724 143.424C193.219 147.918 193.219 155.205 188.724 159.699C184.23 164.193 176.942 164.193 172.447 159.699L146.815 134.07C125.69 112.948 125.69 78.7093 146.815 57.5871Z" fill="#A576FF"/>
</g>
</svg>
