<svg width="491" height="130" viewBox="0 0 491 130" fill="none" xmlns="http://www.w3.org/2000/svg">
<path d="M416.343 85.2953C416.343 77.731 417.44 71.1533 419.632 65.5623C421.825 59.8616 424.73 55.1477 428.348 51.4203C431.965 47.693 436.131 44.8975 440.845 43.0338C445.559 41.1701 450.383 40.2383 455.316 40.2383C466.827 40.2383 475.652 43.856 481.791 51.0914C487.93 58.2172 491 69.1252 491 83.8153C491 84.4731 491 85.3501 491 86.4464C491 87.433 490.945 88.3649 490.835 89.2419H432.294C432.952 98.1217 435.528 104.864 440.023 109.468C444.518 114.073 451.534 116.375 461.072 116.375C466.443 116.375 470.938 115.936 474.556 115.059C478.283 114.073 481.079 113.141 482.942 112.264L485.08 125.09C483.216 126.077 479.927 127.118 475.213 128.215C470.609 129.311 465.347 129.859 459.427 129.859C451.972 129.859 445.504 128.763 440.023 126.57C434.651 124.268 430.211 121.144 426.703 117.197C423.195 113.25 420.564 108.591 418.81 103.219C417.166 97.738 416.343 91.7633 416.343 85.2953ZM475.049 76.9088C475.159 70.0022 473.405 64.3564 469.787 59.9713C466.279 55.4765 461.4 53.2292 455.152 53.2292C451.644 53.2292 448.519 53.9418 445.778 55.3669C443.147 56.6824 440.9 58.4365 439.036 60.629C437.173 62.8216 435.693 65.343 434.596 68.1934C433.61 71.0437 432.952 73.9488 432.623 76.9088H475.049Z" fill="#211743"/>
<path d="M399.746 127.887H384.453V42.3778H399.746V127.887ZM392.017 26.9203C389.277 26.9203 386.92 26.0433 384.946 24.2892C383.083 22.4255 382.151 19.9589 382.151 16.8893C382.151 13.8198 383.083 11.408 384.946 9.65391C386.92 7.79024 389.277 6.8584 392.017 6.8584C394.758 6.8584 397.06 7.79024 398.924 9.65391C400.897 11.408 401.884 13.8198 401.884 16.8893C401.884 19.9589 400.897 22.4255 398.924 24.2892C397.06 26.0433 394.758 26.9203 392.017 26.9203Z" fill="#211743"/>
<path d="M295.443 127.889V2.91329L310.736 0.282227V44.0237C313.586 42.9274 316.601 42.1052 319.78 41.5571C323.069 40.8993 326.303 40.5704 329.482 40.5704C336.279 40.5704 341.925 41.5571 346.42 43.5304C350.914 45.394 354.477 48.0799 357.108 51.588C359.849 54.9865 361.768 59.0975 362.864 63.9211C363.96 68.7448 364.508 74.0617 364.508 79.872V127.889H349.215V83.1608C349.215 77.8987 348.831 73.4039 348.064 69.6766C347.406 65.9492 346.255 62.9345 344.611 60.6323C342.966 58.3301 340.774 56.6857 338.033 55.6991C335.292 54.6028 331.894 54.0546 327.838 54.0546C326.193 54.0546 324.494 54.1643 322.74 54.3835C320.986 54.6028 319.287 54.8768 317.642 55.2057C316.108 55.425 314.682 55.699 313.367 56.0279C312.161 56.3568 311.284 56.6309 310.736 56.8501V127.889H295.443Z" fill="#211743"/>
<path d="M261.1 129.859C254.194 129.859 248.109 128.763 242.847 126.57C237.695 124.378 233.31 121.308 229.692 117.361C226.184 113.415 223.553 108.756 221.799 103.384C220.045 97.9025 219.168 91.8729 219.168 85.2953C219.168 78.7176 220.099 72.6881 221.963 67.2067C223.936 61.7253 226.677 57.0113 230.185 53.0647C233.693 49.0085 237.969 45.8841 243.012 43.6916C248.164 41.3894 253.865 40.2383 260.114 40.2383C263.95 40.2383 267.787 40.5672 271.624 41.2249C275.461 41.8827 279.134 42.9242 282.642 44.3493L279.189 57.3402C276.887 56.2439 274.201 55.3669 271.131 54.7091C268.171 54.0514 264.992 53.7225 261.593 53.7225C253.043 53.7225 246.465 56.4084 241.861 61.7801C237.366 67.1519 235.118 74.9903 235.118 85.2953C235.118 89.8997 235.612 94.1203 236.598 97.9573C237.695 101.794 239.339 105.083 241.532 107.824C243.834 110.564 246.739 112.702 250.247 114.237C253.755 115.662 258.031 116.375 263.073 116.375C267.13 116.375 270.802 115.991 274.091 115.224C277.38 114.456 279.956 113.634 281.82 112.757L283.958 125.583C283.081 126.132 281.82 126.68 280.175 127.228C278.531 127.666 276.667 128.05 274.584 128.379C272.501 128.817 270.254 129.146 267.842 129.366C265.54 129.695 263.293 129.859 261.1 129.859Z" fill="#211743"/>
<path d="M132.245 85.2953C132.245 77.731 133.341 71.1533 135.534 65.5623C137.726 59.8616 140.631 55.1477 144.249 51.4203C147.867 47.693 152.033 44.8975 156.747 43.0338C161.461 41.1701 166.284 40.2383 171.217 40.2383C182.728 40.2383 191.553 43.856 197.693 51.0914C203.832 58.2172 206.901 69.1252 206.901 83.8153C206.901 84.4731 206.901 85.3501 206.901 86.4464C206.901 87.433 206.846 88.3649 206.737 89.2419H148.196C148.853 98.1217 151.43 104.864 155.924 109.468C160.419 114.073 167.435 116.375 176.973 116.375C182.345 116.375 186.839 115.936 190.457 115.059C194.184 114.073 196.98 113.141 198.844 112.264L200.981 125.09C199.118 126.077 195.829 127.118 191.115 128.215C186.511 129.311 181.248 129.859 175.329 129.859C167.874 129.859 161.406 128.763 155.924 126.57C150.553 124.268 146.113 121.144 142.605 117.197C139.097 113.25 136.465 108.591 134.711 103.219C133.067 97.738 132.245 91.7633 132.245 85.2953ZM190.95 76.9088C191.06 70.0022 189.306 64.3564 185.688 59.9713C182.18 55.4765 177.302 53.2292 171.053 53.2292C167.545 53.2292 164.421 53.9418 161.68 55.3669C159.049 56.6824 156.801 58.4365 154.938 60.629C153.074 62.8216 151.594 65.343 150.498 68.1934C149.511 71.0437 148.853 73.9488 148.525 76.9088H190.95Z" fill="#211743"/>
<path d="M0.308701 44.8468C3.81679 43.9698 8.42115 43.0379 14.1218 42.0513C19.9321 41.0646 26.6194 40.5713 34.1837 40.5713C39.6651 40.5713 44.2694 41.3387 47.9968 42.8735C51.7241 44.2986 54.8485 46.4364 57.3699 49.2867C58.1373 48.7386 59.3432 47.9712 60.9877 46.9845C62.6321 45.9979 64.6602 45.066 67.072 44.189C69.4838 43.2024 72.1697 42.3801 75.1296 41.7224C78.0896 40.955 81.2688 40.5713 84.6673 40.5713C91.2449 40.5713 96.6167 41.5579 100.783 43.5312C104.948 45.3949 108.182 48.0808 110.485 51.5889C112.896 55.097 114.486 59.2628 115.253 64.0864C116.13 68.9101 116.569 74.1722 116.569 79.8728V127.89H101.276V83.1617C101.276 78.1188 101.002 73.7885 100.454 70.1708C100.015 66.5531 99.0833 63.5383 97.6581 61.1265C96.3426 58.7147 94.4789 56.9606 92.0671 55.8644C89.7649 54.6585 86.7502 54.0555 83.0228 54.0555C77.8703 54.0555 73.5948 54.7681 70.1964 56.1932C66.9076 57.5088 64.6602 58.7147 63.4543 59.811C64.3313 62.6613 64.9891 65.7857 65.4276 69.1841C65.8661 72.5826 66.0853 76.1455 66.0853 79.8728V127.89H50.7923V83.1617C50.7923 78.1188 50.5182 73.7885 49.9701 70.1708C49.4219 66.5531 48.4353 63.5383 47.0101 61.1265C45.6946 58.7147 43.8309 56.9606 41.4191 55.8644C39.1169 54.6585 36.157 54.0555 32.5393 54.0555C31.0045 54.0555 29.3601 54.1103 27.606 54.2199C25.852 54.3296 24.1527 54.494 22.5083 54.7133C20.9735 54.8229 19.5484 54.9873 18.2328 55.2066C16.9173 55.4258 16.0403 55.5903 15.6018 55.6999V127.89H0.308701V44.8468Z" fill="#211743"/>
</svg>
